<svg width="32" height="32" viewBox="0 0 32 32" fill="none" xmlns="http://www.w3.org/2000/svg">
<rect width="30.72" height="32" rx="15.36" fill="#537FEE"/>
<g clip-path="url(#clip0_5518_19264)">
<path d="M15.3553 4L15.1875 4.57731V21.3281L15.3553 21.4977L23.0329 16.9016L15.3553 4Z" fill="#BECDF9"/>
<path d="M15.3574 4L7.67969 16.9016L15.3574 21.4977V13.3673V4Z" fill="white"/>
<path d="M15.3602 22.9687L15.2656 23.0855V29.0524L15.3602 29.332L23.0425 18.375L15.3602 22.9687Z" fill="#BECDF9"/>
<path d="M15.3574 29.332V22.9687L7.67969 18.375L15.3574 29.332Z" fill="white"/>
<path d="M15.3594 21.4976L23.0369 16.9015L15.3594 13.3672V21.4976Z" fill="#7799F1"/>
<path d="M7.67969 16.9015L15.3574 21.4976V13.3672L7.67969 16.9015Z" fill="#BECDF9"/>
</g>
<rect x="16.6406" y="16" width="15.36" height="16" rx="3.3" fill="#0052FF"/>
<path d="M24.3108 28.8031C26.8603 28.8031 28.9269 26.6543 28.9269 24.0031C28.9269 21.352 26.8603 19.2031 24.3108 19.2031C21.8922 19.2031 19.9082 21.1377 19.7109 23.5995H25.8123V24.4067H19.7109C19.9082 26.8685 21.8922 28.8031 24.3108 28.8031Z" fill="white"/>
<defs>
<clipPath id="clip0_5518_19264">
<rect width="15.36" height="25.3333" fill="white" transform="translate(7.67969 4)"/>
</clipPath>
</defs>
</svg>
