<svg width="32" height="32" viewBox="0 0 32 32" fill="none" xmlns="http://www.w3.org/2000/svg">
<rect width="30.72" height="32" rx="15.36" fill="white"/>
<path d="M3.45738 20.035C3.05081 18.7326 2.84373 17.3718 2.84375 16.0023L2.93652 15.9297L15.0092 15.9549L15.3611 16.0025L3.45738 20.035Z" fill="url(#paint0_radial_5518_874)"/>
<path d="M19.2321 28.4007C17.3534 29.0366 15.3569 29.2002 13.4059 28.8783L13.3125 28.7307L15.3228 16.1663L15.364 16L19.2321 28.4007Z" fill="url(#paint1_radial_5518_874)"/>
<path d="M27.8767 16C27.8767 17.3682 27.67 18.728 27.2641 20.0292H26.9937L15.4233 16.0478L15.3594 16H27.8767Z" fill="url(#paint2_radial_5518_874)"/>
<path d="M5.23438 8.33707C5.61981 7.78446 6.04634 7.26425 6.51002 6.78125L6.61461 6.81473L15.3012 15.8987L15.3611 16.0011L5.23438 8.33707Z" fill="url(#paint3_radial_5518_874)"/>
<path d="M6.50781 6.78347C8.37698 4.83642 10.7899 3.55575 13.4008 3.125L13.457 3.22094L15.3589 15.7941V16.0033L6.50781 6.78347Z" fill="url(#paint4_radial_5518_874)"/>
<path d="M13.4022 3.12159C15.3535 2.79952 17.3504 2.96318 19.2293 3.59917L15.3611 15.9998L13.4022 3.12159Z" fill="url(#paint5_radial_5518_874)"/>
<path d="M2.84375 15.9998C2.84375 14.6316 3.05049 13.2719 3.45639 11.9706L15.3611 15.9998L2.84375 15.9998Z" fill="url(#paint6_radial_5518_874)"/>
<path d="M22.7186 5.45119C24.8571 7.06959 26.4488 9.35159 27.2656 11.9702L15.3611 15.9998L22.7186 5.45119Z" fill="url(#paint7_radial_5518_874)"/>
<path d="M8.00358 26.5485C6.94092 25.7443 6.00641 24.7708 5.23435 23.6639L15.3611 15.9998L8.00358 26.5485Z" fill="url(#paint8_radial_5518_874)"/>
<path d="M13.4029 28.8782C12.7553 28.7713 12.1167 28.6116 11.493 28.4005L15.3611 15.9998L13.4029 28.8782Z" fill="url(#paint9_radial_5518_874)"/>
<path d="M27.2659 20.0288C26.4491 22.6476 24.8573 24.9298 22.7188 26.5483L15.3611 15.9998L27.2659 20.0288Z" fill="url(#paint10_radial_5518_874)"/>
<rect x="16.6406" y="16" width="15.36" height="16" rx="3.3" fill="#0052FF"/>
<path d="M24.3108 28.8031C26.8603 28.8031 28.9269 26.6543 28.9269 24.0031C28.9269 21.352 26.8603 19.2031 24.3108 19.2031C21.8922 19.2031 19.9082 21.1377 19.7109 23.5995H25.8123V24.4067H19.7109C19.9082 26.8685 21.8922 28.8031 24.3108 28.8031Z" fill="white"/>
<defs>
<radialGradient id="paint0_radial_5518_874" cx="0" cy="0" r="1" gradientUnits="userSpaceOnUse" gradientTransform="translate(15.3611 16.0025) rotate(-180) scale(16.6732 17.368)">
<stop stop-color="#6D28FF"/>
<stop offset="1" stop-color="#F7A7F9"/>
</radialGradient>
<radialGradient id="paint1_radial_5518_874" cx="0" cy="0" r="1" gradientUnits="userSpaceOnUse" gradientTransform="translate(15.364 16) rotate(90) scale(13.3492 12.8153)">
<stop stop-color="#FFCD6B"/>
<stop offset="1" stop-color="#EB5EDF"/>
</radialGradient>
<radialGradient id="paint2_radial_5518_874" cx="0" cy="0" r="1" gradientUnits="userSpaceOnUse" gradientTransform="translate(15.3594 16) rotate(-90) scale(13.3384 12.8049)">
<stop stop-color="#A273FF"/>
<stop offset="0.5" stop-color="#9FAEFF"/>
<stop offset="1" stop-color="#B6ECDF"/>
<stop offset="1" stop-color="#AAF2E1"/>
</radialGradient>
<radialGradient id="paint3_radial_5518_874" cx="0" cy="0" r="1" gradientUnits="userSpaceOnUse" gradientTransform="translate(15.3611 16.0011) rotate(113.31) scale(14.1977 13.8113)">
<stop stop-color="#FFD2B9"/>
<stop offset="0.289583" stop-color="#C99BED"/>
<stop offset="1" stop-color="#0075FF"/>
</radialGradient>
<radialGradient id="paint4_radial_5518_874" cx="0" cy="0" r="1" gradientUnits="userSpaceOnUse" gradientTransform="translate(15.3589 16.0033) rotate(-98.6404) scale(13.3391 12.8301)">
<stop stop-color="#F7A7F9"/>
<stop offset="1" stop-color="#00DDFB"/>
</radialGradient>
<radialGradient id="paint5_radial_5518_874" cx="0" cy="0" r="1" gradientUnits="userSpaceOnUse" gradientTransform="translate(15.3611 15.9998) rotate(-90) scale(13.3384 12.8049)">
<stop stop-color="#A273FF"/>
<stop offset="0.5" stop-color="#9FAEFF"/>
<stop offset="1" stop-color="#B6ECDF"/>
<stop offset="1" stop-color="#AAF2E1"/>
</radialGradient>
<radialGradient id="paint6_radial_5518_874" cx="0" cy="0" r="1" gradientUnits="userSpaceOnUse" gradientTransform="translate(15.3611 15.9998) rotate(-180) scale(12.8266 13.361)">
<stop stop-color="#FFF3D0"/>
<stop offset="1" stop-color="#FFC044"/>
</radialGradient>
<radialGradient id="paint7_radial_5518_874" cx="0" cy="0" r="1" gradientUnits="userSpaceOnUse" gradientTransform="translate(15.3611 15.9998) rotate(90) scale(13.3492 12.8153)">
<stop stop-color="#FFCD6B"/>
<stop offset="1" stop-color="#EB5EDF"/>
</radialGradient>
<radialGradient id="paint8_radial_5518_874" cx="0" cy="0" r="1" gradientUnits="userSpaceOnUse" gradientTransform="translate(15.3611 15.9998) rotate(113.31) scale(14.1977 13.8113)">
<stop stop-color="#FFD2B9"/>
<stop offset="0.289583" stop-color="#C99BED"/>
<stop offset="1" stop-color="#0075FF"/>
</radialGradient>
<radialGradient id="paint9_radial_5518_874" cx="0" cy="0" r="1" gradientUnits="userSpaceOnUse" gradientTransform="translate(15.3611 15.9998) rotate(90) scale(13.3769 12.8418)">
<stop stop-color="#D5FAFF"/>
<stop offset="1" stop-color="#00DDFB"/>
</radialGradient>
<radialGradient id="paint10_radial_5518_874" cx="0" cy="0" r="1" gradientUnits="userSpaceOnUse" gradientTransform="translate(15.3611 15.9998) rotate(37.1092) scale(12.9545 13.1091)">
<stop stop-color="#0075FF"/>
<stop offset="1" stop-color="#00DDFB"/>
</radialGradient>
</defs>
</svg>
