<svg width="32" height="32" viewBox="0 0 32 32" fill="none" xmlns="http://www.w3.org/2000/svg">
<ellipse cx="15.36" cy="16" rx="15.36" ry="16" fill="url(#paint0_radial_5460_466211)"/>
<path d="M9.73175 20.0003H7.67188C7.84003 23.3437 10.5305 26.25 15.3018 26.25C20.0521 26.25 23.0789 23.5403 23.0789 20.044C23.0789 13.4011 13.4311 13.7726 13.4311 9.92664C13.4311 8.8559 14.2088 7.58849 16.0165 7.58849C18.0343 7.58849 20.4095 9.22738 20.5776 11.3252H22.6165C22.4063 7.93812 19.2324 5.57812 15.1967 5.57812C11.0139 5.57812 7.86105 8.11294 7.86105 11.6966C7.86105 18.5363 17.5088 17.6403 17.5088 21.8577C17.5088 23.1688 16.7311 24.2614 14.7763 24.2614C12.3381 24.2614 9.87888 22.4914 9.73175 20.0003ZM11.4553 10.4292C11.4553 15.63 21.019 14.6029 21.019 20.1533C21.019 21.814 19.9681 23.2781 18.7069 23.6496C19.1483 23.2125 19.4846 22.2511 19.4846 21.3333C19.4846 16.1981 9.8999 16.8974 9.8999 11.6311C9.8999 9.86108 10.9929 8.44071 12.3591 8.00368C11.8337 8.65923 11.4553 9.51145 11.4553 10.4292Z" fill="white"/>
<rect x="16.6406" y="16" width="15.36" height="16" rx="3.3" fill="#0052FF"/>
<path d="M24.3108 28.8031C26.8603 28.8031 28.9269 26.6543 28.9269 24.0031C28.9269 21.352 26.8603 19.2031 24.3108 19.2031C21.8922 19.2031 19.9082 21.1377 19.7109 23.5995H25.8123V24.4067H19.7109C19.9082 26.8685 21.8922 28.8031 24.3108 28.8031Z" fill="white"/>
<defs>
<radialGradient id="paint0_radial_5460_466211" cx="0" cy="0" r="1" gradientUnits="userSpaceOnUse" gradientTransform="translate(15.36 38.6667) rotate(-90) scale(52 59.904)">
<stop stop-color="#FFD232"/>
<stop offset="1" stop-color="#FF6D6D"/>
</radialGradient>
</defs>
</svg>
