<svg width="24" height="24" viewBox="0 0 24 24" fill="none" xmlns="http://www.w3.org/2000/svg">
<g clip-path="url(#clip0_3491_8846)">
<path d="M12 0C18.628 0 24 5.37305 24 12C24 18.628 18.628 24 12 24C5.37305 24 0 18.6275 0 12C0 5.37305 5.37305 0 12 0Z" fill="#F5AC37"/>
<path d="M12.6322 12.8474H17.2621C17.3608 12.8474 17.4074 12.8474 17.4146 12.7199C17.4524 12.2561 17.4524 11.7895 17.4146 11.3251C17.4146 11.2349 17.3691 11.1976 17.2698 11.1976H8.0554C7.94135 11.1976 7.91065 11.2349 7.91065 11.3402V12.6751C7.91065 12.8474 7.91065 12.8474 8.09324 12.8474H12.6322ZM16.8975 9.63757C16.9107 9.60355 16.9107 9.56629 16.8975 9.53281C16.8202 9.36703 16.7286 9.20881 16.6222 9.06031C16.4621 8.80651 16.2735 8.57268 16.0586 8.36262C15.9571 8.23572 15.8398 8.12178 15.7082 8.02512C15.0491 7.47269 14.2656 7.08173 13.4234 6.88517C12.9984 6.79121 12.5642 6.74639 12.1288 6.75017H8.0395C7.92545 6.75017 7.9101 6.79499 7.9101 6.89273V9.55495C7.9101 9.66727 7.9101 9.69752 8.05485 9.69752H16.8427C16.8427 9.69752 16.9189 9.68239 16.9342 9.63757H16.897H16.8975ZM16.8975 14.4074C16.7681 14.3934 16.6376 14.3934 16.5082 14.4074H8.06308C7.94903 14.4074 7.91065 14.4074 7.91065 14.5576V17.1604C7.91065 17.2803 7.91065 17.3105 8.06308 17.3105H11.9621C12.1486 17.3246 12.335 17.3116 12.5176 17.2732C13.0834 17.2333 13.64 17.1123 14.1707 16.9131C14.3637 16.8472 14.5502 16.7613 14.7262 16.6582H14.7794C15.6934 16.19 16.4358 15.4545 16.9041 14.5516C16.9041 14.5516 16.9573 14.4382 16.8975 14.4085V14.4074ZM6.38031 18.66V18.6152V16.8677V16.2753V14.5127C6.38031 14.415 6.38031 14.4004 6.25858 14.4004H4.60596C4.5144 14.4004 4.47656 14.4004 4.47656 14.2805V12.8555H6.24323C6.34192 12.8555 6.38031 12.8555 6.38031 12.728V11.3181C6.38031 11.2279 6.38031 11.2057 6.25858 11.2057H4.60596C4.5144 11.2057 4.47656 11.2057 4.47656 11.0859V9.7661C4.47656 9.68348 4.47656 9.66133 4.59829 9.66133H6.23555C6.3496 9.66133 6.38031 9.66133 6.38031 9.51877V5.47629C6.38031 5.35641 6.38031 5.32617 6.53274 5.32617H12.244C12.6585 5.34237 13.0703 5.38719 13.4777 5.46117C14.3171 5.61399 15.1237 5.90938 15.8612 6.33112C16.3503 6.61462 16.8005 6.95699 17.2013 7.35119C17.5028 7.65954 17.7748 7.99326 18.0161 8.34858C18.2557 8.70877 18.4547 9.09379 18.611 9.49609C18.6302 9.60085 18.7322 9.6716 18.8385 9.65378H20.2016C20.3765 9.65378 20.3765 9.65377 20.3842 9.81902V11.0491C20.3842 11.169 20.3387 11.1993 20.2164 11.1993H19.1653C19.059 11.1993 19.0282 11.1993 19.0359 11.3343C19.0776 11.7911 19.0776 12.2496 19.0359 12.7064C19.0359 12.8339 19.0359 12.849 19.1812 12.849H20.3837C20.4369 12.9165 20.3837 12.984 20.3837 13.052C20.3914 13.139 20.3914 13.227 20.3837 13.3139V14.2217C20.3837 14.3491 20.3458 14.3869 20.2312 14.3869H18.7919C18.6916 14.368 18.594 14.4312 18.571 14.5295C18.2283 15.407 17.6799 16.1938 16.9715 16.8245C16.7127 17.054 16.4408 17.27 16.1567 17.4693C15.8519 17.6421 15.5552 17.8219 15.2427 17.9645C14.6675 18.2193 14.0644 18.4073 13.4453 18.5266C12.8575 18.6303 12.2615 18.6773 11.6633 18.6692H6.37811V18.6616L6.38031 18.66Z" fill="#FEFEFD"/>
</g>
<defs>
<clipPath id="clip0_3491_8846">
<rect width="24" height="24" fill="white"/>
</clipPath>
</defs>
</svg>
