<svg width="24" height="24" viewBox="0 0 24 24" fill="none" xmlns="http://www.w3.org/2000/svg">
<path d="M12 23.9963C18.6274 23.9963 24 18.6245 24 11.9981C24 5.37174 18.6274 0 12 0C5.37258 0 0 5.37174 0 11.9981C0 18.6245 5.37258 23.9963 12 23.9963Z" fill="#627EEA"/>
<path d="M12.375 2.99805V9.64982L17.9977 12.1623L12.375 2.99805Z" fill="white" fill-opacity="0.602"/>
<path d="M12.3747 2.99805L6.75195 12.1623L12.3747 9.64982V2.99805Z" fill="white"/>
<path d="M12.375 16.4726V20.9923L18.001 13.209L12.375 16.4726Z" fill="white" fill-opacity="0.602"/>
<path d="M12.3747 20.9923V16.4726L6.75195 13.209L12.3747 20.9923Z" fill="white"/>
<path d="M12.375 15.4254L17.9977 12.1619L12.375 9.64941V15.4254Z" fill="white" fill-opacity="0.2"/>
<path d="M6.75195 12.1619L12.3747 15.4254V9.64941L6.75195 12.1619Z" fill="white" fill-opacity="0.602"/>
</svg>
