<svg width="24" height="24" viewBox="0 0 24 24" fill="none" xmlns="http://www.w3.org/2000/svg">
<path d="M12 23.9963C18.6274 23.9963 24 18.6245 24 11.9981C24 5.37174 18.6274 0 12 0C5.37258 0 0 5.37174 0 11.9981C0 18.6245 5.37258 23.9963 12 23.9963Z" fill="#F2F4F7"/>
<path d="M6.75195 12.1619L12.3747 15.4254V9.64941L6.75195 12.1619Z" fill="white" fill-opacity="0.602"/>
<g opacity="0.6">
<mask id="mask0_3496_151481" style="mask-type:luminance" maskUnits="userSpaceOnUse" x="6" y="9" width="13" height="7">
<path d="M6 9.39551H18.2759V15.8146H6V9.39551Z" fill="white"/>
</mask>
<g mask="url(#mask0_3496_151481)">
<path d="M12.1392 9.39551L6 12.1876L12.1392 15.8146L18.2759 12.1876L12.1392 9.39551Z" fill="#010101"/>
</g>
</g>
<g opacity="0.45">
<mask id="mask1_3496_151481" style="mask-type:luminance" maskUnits="userSpaceOnUse" x="6" y="2" width="7" height="14">
<path d="M6 2H12.1392V15.8131H6V2Z" fill="white"/>
</mask>
<g mask="url(#mask1_3496_151481)">
<path d="M6 12.1861L12.1392 15.8131V2L6 12.1861Z" fill="#010101"/>
</g>
</g>
<g opacity="0.8">
<mask id="mask2_3496_151481" style="mask-type:luminance" maskUnits="userSpaceOnUse" x="12" y="2" width="7" height="14">
<path d="M12.1426 2H18.2817V15.8131H12.1426V2Z" fill="white"/>
</mask>
<g mask="url(#mask2_3496_151481)">
<path d="M12.1426 2V15.8131L18.2793 12.1861L12.1426 2Z" fill="#010101"/>
</g>
</g>
<g opacity="0.45">
<mask id="mask3_3496_151481" style="mask-type:luminance" maskUnits="userSpaceOnUse" x="6" y="13" width="7" height="9">
<path d="M6 13.3516H12.1392V22.0004H6V13.3516Z" fill="white"/>
</mask>
<g mask="url(#mask3_3496_151481)">
<path d="M6 13.3506L12.1392 21.9995V16.9776L6 13.3506Z" fill="#010101"/>
</g>
</g>
<g opacity="0.8">
<mask id="mask4_3496_151481" style="mask-type:luminance" maskUnits="userSpaceOnUse" x="12" y="13" width="7" height="9">
<path d="M12.1426 13.3516H18.2841V22.0004H12.1426V13.3516Z" fill="white"/>
</mask>
<g mask="url(#mask4_3496_151481)">
<path d="M12.1426 16.9786V22.0004L18.2841 13.3516L12.1426 16.9786Z" fill="#010101"/>
</g>
</g>
</svg>
