<svg width="192" height="40" viewBox="0 0 192 40" fill="none" xmlns="http://www.w3.org/2000/svg">
<g id="Vector 5">
<path d="M170.105 1H13C6.37258 1 1 6.37259 1 13V19.24V27C1 33.6274 6.37257 39 13 39H170.196C173.836 39 177.28 37.3476 179.557 34.5077L191 20.24L179.558 5.60792C177.284 2.69955 173.797 1 170.105 1Z" fill="#4331E9" fill-opacity="0.9" style="mix-blend-mode:plus-lighter"/>
<path d="M170.105 1H13C6.37258 1 1 6.37259 1 13V19.24V27C1 33.6274 6.37257 39 13 39H170.196C173.836 39 177.28 37.3476 179.557 34.5077L191 20.24L179.558 5.60792C177.284 2.69955 173.797 1 170.105 1Z" fill="white" fill-opacity="0.3" style="mix-blend-mode:overlay"/>
<path d="M170.105 1H13C6.37258 1 1 6.37259 1 13V19.24V27C1 33.6274 6.37257 39 13 39H170.196C173.836 39 177.28 37.3476 179.557 34.5077L191 20.24L179.558 5.60792C177.284 2.69955 173.797 1 170.105 1Z" fill="url(#paint0_radial_2153_104656)" fill-opacity="0.25" style="mix-blend-mode:overlay"/>
<path d="M170.105 1H13C6.37258 1 1 6.37259 1 13V19.24V27C1 33.6274 6.37257 39 13 39H170.196C173.836 39 177.28 37.3476 179.557 34.5077L191 20.24L179.558 5.60792C177.284 2.69955 173.797 1 170.105 1Z" stroke="white" stroke-opacity="0.25" style="mix-blend-mode:overlay"/>
</g>
<defs>
<radialGradient id="paint0_radial_2153_104656" cx="0" cy="0" r="1" gradientUnits="userSpaceOnUse" gradientTransform="translate(96 1.86364) rotate(90) scale(44.2614 221.307)">
<stop stop-color="white" stop-opacity="0"/>
<stop offset="1" stop-color="white"/>
</radialGradient>
</defs>
</svg>
