<svg width="192" height="40" viewBox="0 0 192 40" fill="none" xmlns="http://www.w3.org/2000/svg">
<g id="Vector 5">
<path d="M170.105 1H13C6.37258 1 1 6.37259 1 13V19.24V27C1 33.6274 6.37257 39 13 39H170.196C173.836 39 177.28 37.3476 179.557 34.5077L191 20.24L179.558 5.60792C177.284 2.69955 173.797 1 170.105 1Z" fill="rgb(42,37,93)" fill-opacity="1" style="mix-blend-mode:overlay"/>
<path d="M170.105 1H13C6.37258 1 1 6.37259 1 13V19.24V27C1 33.6274 6.37257 39 13 39H170.196C173.836 39 177.28 37.3476 179.557 34.5077L191 20.24L179.558 5.60792C177.284 2.69955 173.797 1 170.105 1Z" stroke="white" stroke-opacity="0.20" style="mix-blend-mode:overlay"/>
</g>
</svg>
