<svg width="183" height="176" viewBox="0 0 183 176" fill="none" xmlns="http://www.w3.org/2000/svg">
<path d="M91.4913 113.852C109.726 103.303 121.995 83.5877 121.995 61.0067L121.72 60.7888C121.638 38.3748 109.429 18.7952 91.3516 8.25795L91.4913 8.16169C100.465 2.97088 110.883 0 121.995 0C155.688 0 183.002 27.3136 183.002 61.0067C183.002 83.7458 170.561 103.579 152.115 114.072C152.115 114.072 151.883 114.685 151.802 114.731C142.972 119.7 132.858 122.476 122.004 122.476C110.974 122.476 100.627 119.548 91.6983 114.428C91.6323 114.39 91.4913 113.852 91.4913 113.852Z" fill="url(#paint0_linear_3263_28094)"/>
<path d="M152.123 114.07C143.236 119.126 132.955 122.014 121.999 122.014C88.3062 122.014 60.9925 94.7002 60.9925 61.0072L60.3905 60.8828C42.1289 71.272 30.1887 90.8263 29.9453 113.281L30.1107 113.611C30.1096 113.76 30.1091 113.909 30.1091 114.058C30.1091 147.751 57.4227 175.065 91.1158 175.065C124.805 175.065 152.116 147.758 152.123 114.07Z" fill="url(#paint1_linear_3263_28094)"/>
<path d="M111.732 27.1132C118.435 37.1457 122.013 48.9407 122.013 61.0067H61.0073C42.6814 71.4326 30.2838 91.0657 30.1254 113.62C29.1052 113.021 28.1007 112.392 27.1132 111.732C17.0807 105.028 9.26134 95.5005 4.64389 84.353C0.0264333 73.2055 -1.1817 60.9391 1.17225 49.1049C3.52621 37.2708 9.33654 26.4004 17.8685 17.8685C26.4004 9.33654 37.2708 3.52621 49.1049 1.17225C60.9391 -1.1817 73.2055 0.0264333 84.353 4.64389C95.5005 9.26134 105.028 17.0807 111.732 27.1132Z" fill="url(#paint2_linear_3263_28094)"/>
<defs>
<linearGradient id="paint0_linear_3263_28094" x1="109.293" y1="122.013" x2="137.246" y2="1.24799e-05" gradientUnits="userSpaceOnUse">
<stop stop-color="#F7A7F9"/>
<stop offset="1" stop-color="#00DDFB"/>
</linearGradient>
<linearGradient id="paint1_linear_3263_28094" x1="7.79272" y1="136.377" x2="113.442" y2="197.385" gradientUnits="userSpaceOnUse">
<stop stop-color="#F7A7F9"/>
<stop offset="1" stop-color="#6D28FF"/>
</linearGradient>
<linearGradient id="paint2_linear_3263_28094" x1="-3.187" y1="116.088" x2="96.276" y2="9.42048" gradientUnits="userSpaceOnUse">
<stop stop-color="#FFF3D0"/>
<stop offset="1" stop-color="#FFC044"/>
<stop offset="1" stop-color="#FFC044"/>
<stop offset="1" stop-color="#FFC044"/>
</linearGradient>
</defs>
</svg>
