<svg width="190" height="40" viewBox="0 0 190 40" fill="none" xmlns="http://www.w3.org/2000/svg">
<g id="Vector 6">
<path d="M168.105 1H3.49031C1.75883 1 0.845423 3.05075 2.00363 4.33783L14.257 17.9545C14.9212 18.6927 14.9433 19.8064 14.3087 20.5703L1.72283 35.7221C0.640298 37.0253 1.56711 39 3.26131 39H168.196C171.836 39 175.28 37.3476 177.557 34.5077L189 20.24L177.558 5.60792C175.284 2.69955 171.797 1 168.105 1Z" fill="#4331E9" fill-opacity="0.9" style="mix-blend-mode:plus-lighter"/>
<path d="M168.105 1H3.49031C1.75883 1 0.845423 3.05075 2.00363 4.33783L14.257 17.9545C14.9212 18.6927 14.9433 19.8064 14.3087 20.5703L1.72283 35.7221C0.640298 37.0253 1.56711 39 3.26131 39H168.196C171.836 39 175.28 37.3476 177.557 34.5077L189 20.24L177.558 5.60792C175.284 2.69955 171.797 1 168.105 1Z" fill="white" fill-opacity="0.3" style="mix-blend-mode:overlay"/>
<path d="M168.105 1H3.49031C1.75883 1 0.845423 3.05075 2.00363 4.33783L14.257 17.9545C14.9212 18.6927 14.9433 19.8064 14.3087 20.5703L1.72283 35.7221C0.640298 37.0253 1.56711 39 3.26131 39H168.196C171.836 39 175.28 37.3476 177.557 34.5077L189 20.24L177.558 5.60792C175.284 2.69955 171.797 1 168.105 1Z" fill="url(#paint0_radial_2156_130747)" fill-opacity="0.25" style="mix-blend-mode:overlay"/>
<path d="M168.105 1H3.49031C1.75883 1 0.845423 3.05075 2.00363 4.33783L14.257 17.9545C14.9212 18.6927 14.9433 19.8064 14.3087 20.5703L1.72283 35.7221C0.640298 37.0253 1.56711 39 3.26131 39H168.196C171.836 39 175.28 37.3476 177.557 34.5077L189 20.24L177.558 5.60792C175.284 2.69955 171.797 1 168.105 1Z" stroke="white" stroke-opacity="0.25" style="mix-blend-mode:overlay"/>
</g>
<defs>
<radialGradient id="paint0_radial_2156_130747" cx="0" cy="0" r="1" gradientUnits="userSpaceOnUse" gradientTransform="translate(94 1.86364) rotate(90) scale(44.2614 221.307)">
<stop stop-color="white" stop-opacity="0"/>
<stop offset="1" stop-color="white"/>
</radialGradient>
</defs>
</svg>
