<svg width="190" height="40" viewBox="0 0 190 40" fill="none" xmlns="http://www.w3.org/2000/svg">
<g id="Vector 6">
<path d="M168.105 1H3.49031C1.75883 1 0.845423 3.05075 2.00363 4.33783L14.257 17.9545C14.9212 18.6927 14.9433 19.8064 14.3087 20.5703L1.72283 35.7221C0.640298 37.0253 1.56711 39 3.26131 39H168.196C171.836 39 175.28 37.3476 177.557 34.5077L189 20.24L177.558 5.60792C175.284 2.69955 171.797 1 168.105 1Z" fill="rgb(60,50,122)" fill-opacity="0.7" style="mix-blend-mode:overlay"/>
<path d="M168.105 1H3.49031C1.75883 1 0.845423 3.05075 2.00363 4.33783L14.257 17.9545C14.9212 18.6927 14.9433 19.8064 14.3087 20.5703L1.72283 35.7221C0.640298 37.0253 1.56711 39 3.26131 39H168.196C171.836 39 175.28 37.3476 177.557 34.5077L189 20.24L177.558 5.60792C175.284 2.69955 171.797 1 168.105 1Z" stroke="white" stroke-opacity="0.15" style="mix-blend-mode:overlay"/>
</g>
</svg>
