<svg width="209" height="210" viewBox="0 0 209 210" fill="none" xmlns="http://www.w3.org/2000/svg">
<path d="M50.0251 44.2969H0.00174019V165.708H50.0251L50.2109 164.351V89.6713L50.0251 88.5974V44.2969Z" fill="url(#paint0_linear_3263_28087)"/>
<path d="M79.3958 88.5859H50.0239V209.997H79.3958L79.7422 209.058V89.9018L79.3958 88.5859Z" fill="url(#paint1_linear_3263_28087)"/>
<path d="M158.795 165.711L208.819 165.711L208.819 44.3001L158.795 44.3001L158.375 45.3863L158.375 164.572L158.795 165.711Z" fill="url(#paint2_linear_3263_28087)"/>
<rect width="79.3966" height="210" transform="matrix(-1 0 0 1 158.789 0)" fill="url(#paint3_linear_3263_28087)"/>
<defs>
<linearGradient id="paint0_linear_3263_28087" x1="50.0253" y1="165.802" x2="50.0253" y2="44.1742" gradientUnits="userSpaceOnUse">
<stop stop-color="#AAF2E1"/>
<stop offset="0.5" stop-color="#9FAEFF"/>
<stop offset="1" stop-color="#A273FF"/>
</linearGradient>
<linearGradient id="paint1_linear_3263_28087" x1="79.3957" y1="210.03" x2="79.3958" y2="88.5506" gradientUnits="userSpaceOnUse">
<stop stop-color="#FFD2B9"/>
<stop offset="1" stop-color="#FF6D6D"/>
</linearGradient>
<linearGradient id="paint2_linear_3263_28087" x1="183.807" y1="44.2037" x2="183.807" y2="165.807" gradientUnits="userSpaceOnUse">
<stop stop-color="#F7A7F9"/>
<stop offset="1" stop-color="#00DDFB"/>
</linearGradient>
<linearGradient id="paint3_linear_3263_28087" x1="79.397" y1="210.129" x2="79.397" y2="-0.103091" gradientUnits="userSpaceOnUse">
<stop stop-color="#F7A7F9"/>
<stop offset="1" stop-color="#6D28FF"/>
</linearGradient>
</defs>
</svg>
