<svg width="210" height="210" viewBox="0 0 210 210" fill="none" xmlns="http://www.w3.org/2000/svg">
<path fill-rule="evenodd" clip-rule="evenodd" d="M66.9652 143.035C29.5824 140.651 0 109.576 0 71.5909C0 32.0523 32.0523 0 71.5909 0C109.576 0 140.651 29.5824 143.035 66.9652C180.418 69.3492 210 100.424 210 138.409C210 177.948 177.948 210 138.409 210C100.424 210 69.3492 180.418 66.9652 143.035ZM19.0909 71.5909C19.0909 42.596 42.596 19.0909 71.5909 19.0909C99.4709 19.0909 122.275 40.823 123.988 68.2713C96.0199 73.9916 73.9916 96.0199 68.2713 123.988C40.823 122.275 19.0909 99.4709 19.0909 71.5909ZM190.909 138.409C190.909 167.404 167.404 190.909 138.409 190.909C109.414 190.909 85.9091 167.404 85.9091 138.409C85.9091 109.414 109.414 85.9091 138.409 85.9091C167.404 85.9091 190.909 109.414 190.909 138.409Z" fill="url(#paint0_linear_3263_28089)"/>
<defs>
<linearGradient id="paint0_linear_3263_28089" x1="28.8235" y1="-2.5668e-06" x2="195.074" y2="210" gradientUnits="userSpaceOnUse">
<stop stop-color="#A280FF"/>
<stop offset="0.224703" stop-color="#A6D5EE"/>
<stop offset="0.467459" stop-color="#EC65D9"/>
<stop offset="0.690543" stop-color="#FEC575"/>
</linearGradient>
</defs>
</svg>
